<svg width="10" height="10" viewBox="0 0 10 10" xmlns="http://www.w3.org/2000/svg" xmlns:xlink="http://www.w3.org/1999/xlink"><title>Polygon</title><desc>Created using Figma</desc><use xlink:href="#a" transform="translate(1 1)" fill="#D83142"/><defs><path id="a" d="M3.89 0l.375-.65-.375-.216-.375.216.375.65zm3.369 1.945h.75v-.433l-.375-.217-.375.65zm0 3.89l.375.65.375-.217v-.433h-.75zM3.89 7.78l-.375.65.375.216.375-.216-.375-.65zM.521 5.835h-.75v.433l.375.217.375-.65zm0-3.89l-.375-.65-.375.217v.433h.75zM3.515.65l3.369 1.945.75-1.3L4.265-.65l-.75 1.3zm2.994 1.295v3.89h1.5v-3.89h-1.5zm.375 3.24L3.515 7.13l.75 1.3 3.369-1.945-.75-1.3zM4.265 7.13L.896 5.185l-.75 1.3L3.515 8.43l.75-1.3zM1.271 5.835v-3.89h-1.5v3.89h1.5zm-.375-3.24L4.265.65l-.75-1.3L.146 1.295l.75 1.3z"/></defs></svg>