<svg width="11" height="11" viewBox="0 0 11 11" xmlns="http://www.w3.org/2000/svg" xmlns:xlink="http://www.w3.org/1999/xlink"><title>Rectangle</title><desc>Created using Figma</desc><g transform="translate(-1116 -3254)"><mask id="b"><use xlink:href="#a" fill="#fff" transform="rotate(45 -3367.176 2980.769)"/></mask><g mask="url(#b)"><use xlink:href="#c" transform="rotate(45 -3367.176 2980.769)" fill="#D83142"/></g></g><defs><path id="a" fill-rule="evenodd" d="M0 0h7.778v7.778H0V0z"/><path id="c" d="M0 0v-1.5h-1.5V0H0zm7.778 0h1.5v-1.5h-1.5V0zm0 7.778v1.5h1.5v-1.5h-1.5zM0 7.778h-1.5v1.5H0v-1.5zM0 1.5h7.778v-3H0v3zM6.278 0v7.778h3V0h-3zm1.5 6.278H0v3h7.778v-3zM1.5 7.778V0h-3v7.778h3z"/></defs></svg>