<svg width="10" height="10" viewBox="0 0 10 10" version="1.1" xmlns="http://www.w3.org/2000/svg" xmlns:xlink="http://www.w3.org/1999/xlink">
<title>Polygon</title>
<desc>Created using Figma</desc>
<g id="Canvas" transform="translate(-994 -3254)">
<g id="Polygon">
<use xlink:href="#path0_stroke" transform="translate(995 3255)" fill="#D83142"/>
</g>
</g>
<defs>
<path id="path0_stroke" d="M 3.89 0L 4.265 -0.649519L 3.89 -0.866025L 3.515 -0.649519L 3.89 0ZM 7.25884 1.945L 8.00884 1.945L 8.00884 1.51199L 7.63384 1.29548L 7.25884 1.945ZM 7.25884 5.835L 7.63384 6.48452L 8.00884 6.26801L 8.00884 5.835L 7.25884 5.835ZM 3.89 7.78L 3.515 8.42952L 3.89 8.64603L 4.265 8.42952L 3.89 7.78ZM 0.521161 5.835L -0.228839 5.835L -0.228839 6.26801L 0.146161 6.48452L 0.521161 5.835ZM 0.521161 1.945L 0.146161 1.29548L -0.228839 1.51199L -0.228839 1.945L 0.521161 1.945ZM 3.515 0.649519L 6.88384 2.59452L 7.63384 1.29548L 4.265 -0.649519L 3.515 0.649519ZM 6.50884 1.945L 6.50884 5.835L 8.00884 5.835L 8.00884 1.945L 6.50884 1.945ZM 6.88384 5.18548L 3.515 7.13048L 4.265 8.42952L 7.63384 6.48452L 6.88384 5.18548ZM 4.265 7.13048L 0.896161 5.18548L 0.146161 6.48452L 3.515 8.42952L 4.265 7.13048ZM 1.27116 5.835L 1.27116 1.945L -0.228839 1.945L -0.228839 5.835L 1.27116 5.835ZM 0.896161 2.59452L 4.265 0.649519L 3.515 -0.649519L 0.146161 1.29548L 0.896161 2.59452Z"/>
</defs>
</svg>
